<svg width="80" height="80" viewBox="0 0 80 80" fill="none" xmlns="http://www.w3.org/2000/svg">
<path d="M53.41 31.16H70.05L59.4467 20.55C56.0329 17.1363 51.7807 14.6813 47.1174 13.432C42.454 12.1827 37.544 12.1831 32.8809 13.4331C28.2178 14.6831 23.9659 17.1386 20.5527 20.5529C17.1394 23.9672 14.6852 28.2198 13.4367 32.8833M9.94999 65.48V48.84M9.94999 48.84H26.59M9.94999 48.84L20.55 59.45C23.9637 62.8638 28.216 65.3187 32.8793 66.568C37.5426 67.8173 42.4526 67.8169 47.1158 66.5669C51.7789 65.3169 56.0308 62.8614 59.444 59.4471C62.8572 56.0329 65.3114 51.7802 66.56 47.1167M70.05 14.52V31.1533" stroke="#92A4BE" stroke-width="5" stroke-linecap="round" stroke-linejoin="round"/>
</svg>
